HIERARCHY
ROOT Hips
{
	OFFSET 0.00000 0.00000 0.00000
	CHANNELS 6 Xposition Yposition Zposition Zrotation Yrotation Xrotation 
	JOINT LHipJoint
	{
		OFFSET 0 0 0
		CHANNELS 3 Zrotation Yrotation Xrotation
		JOINT LeftUpLeg
		{
			OFFSET 1.34019 -1.87553 0.90315
			CHANNELS 3 Zrotation Yrotation Xrotation
			JOINT LeftLeg
			{
				OFFSET 2.55316 -7.01474 0.00000
				CHANNELS 3 Zrotation Yrotation Xrotation
				JOINT LeftFoot
				{
					OFFSET 2.64657 -7.27139 0.00000
					CHANNELS 3 Zrotation Yrotation Xrotation
					JOINT LeftToeBase
					{
						OFFSET 0.24207 -0.66507 2.14489
						CHANNELS 3 Zrotation Yrotation Xrotation
						End Site
						{
							OFFSET 0.00000 -0.00000 1.12451
						}
					}
				}
			}
		}
	}
	JOINT RHipJoint
	{
		OFFSET 0 0 0
		CHANNELS 3 Zrotation Yrotation Xrotation
		JOINT RightUpLeg
		{
			OFFSET -1.28320 -1.87553 0.90315
			CHANNELS 3 Zrotation Yrotation Xrotation
			JOINT RightLeg
			{
				OFFSET -2.60484 -7.15674 0.00000
				CHANNELS 3 Zrotation Yrotation Xrotation
				JOINT RightFoot
				{
					OFFSET -2.60296 -7.15159 0.00000
					CHANNELS 3 Zrotation Yrotation Xrotation
					JOINT RightToeBase
					{
						OFFSET -0.31082 -0.85398 2.28998
						CHANNELS 3 Zrotation Yrotation Xrotation
						End Site
						{
							OFFSET -0.00000 -0.00000 1.21611
						}
					}
				}
			}
		}
	}
	JOINT LowerBack
	{
		OFFSET 0 0 0
		CHANNELS 3 Zrotation Yrotation Xrotation
		JOINT Spine
		{
			OFFSET -0.00160 2.05581 -0.15156
			CHANNELS 3 Zrotation Yrotation Xrotation
			JOINT Spine1
			{
				OFFSET 0.04594 2.06326 -0.01617
				CHANNELS 3 Zrotation Yrotation Xrotation
				JOINT Neck
				{
					OFFSET 0 0 0
					CHANNELS 3 Zrotation Yrotation Xrotation
					JOINT Neck1
					{
						OFFSET 0.03753 1.73883 0.26751
						CHANNELS 3 Zrotation Yrotation Xrotation
						JOINT Head
						{
							OFFSET -0.09795 1.76129 -0.31794
							CHANNELS 3 Zrotation Yrotation Xrotation
							End Site
							{
								OFFSET -0.03611 1.79987 -0.13846
							}
						}
					}
				}
				JOINT LeftShoulder
				{
					OFFSET 0 0 0
					CHANNELS 3 Zrotation Yrotation Xrotation
					JOINT LeftArm
					{
						OFFSET 3.30667 1.29205 -0.22445
						CHANNELS 3 Zrotation Yrotation Xrotation
						JOINT LeftForeArm
						{
							OFFSET 4.92785 -0.00000 -0.00000
							CHANNELS 3 Zrotation Yrotation Xrotation
							JOINT LeftHand
							{
								OFFSET 3.44052 -0.00000 0.00000
								CHANNELS 3 Zrotation Yrotation Xrotation
								JOINT LeftFingerBase
								{
									OFFSET 0 0 0
									CHANNELS 3 Zrotation Yrotation Xrotation
									JOINT LeftHandIndex1
									{
										OFFSET 0.65433 -0.00000 0.00000
										CHANNELS 3 Zrotation Yrotation Xrotation
										End Site
										{
											OFFSET 0.52753 -0.00000 0.00000
										}
									}
								}
								JOINT LThumb
								{
									OFFSET 0 0 0
									CHANNELS 3 Zrotation Yrotation Xrotation
									End Site
									{
										OFFSET 0.53559 -0.00000 0.53559
									}
								}
							}
						}
					}
				}
				JOINT RightShoulder
				{
					OFFSET 0 0 0
					CHANNELS 3 Zrotation Yrotation Xrotation
					JOINT RightArm
					{
						OFFSET -3.20032 1.49783 -0.27688
						CHANNELS 3 Zrotation Yrotation Xrotation
						JOINT RightForeArm
						{
							OFFSET -5.09181 -0.00000 -0.00000
							CHANNELS 3 Zrotation Yrotation Xrotation
							JOINT RightHand
							{
								OFFSET -3.49865 -0.00000 -0.00000
								CHANNELS 3 Zrotation Yrotation Xrotation
								JOINT RightFingerBase
								{
									OFFSET 0 0 0
									CHANNELS 3 Zrotation Yrotation Xrotation
									JOINT RightHandIndex1
									{
										OFFSET -0.66641 -0.00000 0.00000
										CHANNELS 3 Zrotation Yrotation Xrotation
										End Site
										{
											OFFSET -0.53728 -0.00000 0.00000
										}
									}
								}
								JOINT RThumb
								{
									OFFSET 0 0 0
									CHANNELS 3 Zrotation Yrotation Xrotation
									End Site
									{
										OFFSET -0.54548 -0.00000 0.54548
									}
								}
							}
						}
					}
				}
			}
		}
	}
}
MOTION
Frames: 10
Frame Time: .0083333
0.2435 17.898 -29.2036 0 0 0 0 0 0 -21 0 0 0 0 0 0 0 0 0 0 0 0 0 0 21 0 0 0 0 0 0 0 0 0 0 0 0 0 0 0 0 0 0 0 0 0 0 -16 0 0 21 0 0 11 0 0 0 -8 0 0 0 0 0 0 0 0 0 0 0 0 0 0 0 0 0 0 0 0 8 0 0 0 0 0 0 0 0 0 0 0 0 0 0 0 0 0
0.2435 17.8980 -29.2036 -3.3337 39.0207 -0.3821 0.0000 0.0000 0.0000 -13.4578 -14.2057 -9.3842 2.3684 9.5947 27.6739 0.4333 -7.6920 -12.1146 0.2049 -2.9148 -8.0417 0.0000 0.0000 0.0000 23.9957 -15.9936 -10.6953 -2.2338 -9.3369 26.8549 2.5055 -33.4305 -35.0089 -0.0845 -1.8750 5.1603 3.3042 6.6111 2.4758 2.0889 8.9566 -0.2229 0.0043 4.4589 -1.4383 17.5289 20.3592 2.2073 -15.3505 29.3465 8.6480 -4.5981 14.5322 7.1086 0.0000 0.0000 0.0000 -88.9739 -1.4755 37.4584 12.9624 -21.2321 -2.4397 -0.0000 0.0000 -3.1709 10.0712 1.5765 0.2800 -7.1250 0.0000 -0.0000 -13.1343 31.4073 4.4692 0.0000 0.0000 0.0000 82.4216 -1.3846 25.6782 -13.0984 21.4312 -2.4891 0.0000 -0.0000 -8.2236 -17.1552 2.8141 -0.8683 7.1250 -0.0000 -0.0000 7.2164 -27.0170 3.1743
0.2427 17.8977 -29.2033 -3.3136 39.0280 -0.3803 0.0000 0.0000 0.0000 -13.4687 -14.1714 -9.3694 2.3652 9.5886 27.6545 0.4307 -7.7249 -12.0907 0.1994 -2.8757 -7.9328 0.0000 0.0000 0.0000 23.9722 -16.0043 -10.7182 -2.2427 -9.3544 26.9102 2.5005 -33.4088 -34.9929 -0.0847 -1.8777 5.1679 3.2972 6.6289 2.4979 2.0756 8.9824 -0.2588 -0.0117 4.4707 -1.4860 16.7347 20.4674 0.7160 -13.8951 29.3645 10.7011 -3.8799 14.4543 7.6640 0.0000 -0.0000 0.0000 -88.9387 -1.3966 37.4952 12.9675 -21.2396 -2.4415 -0.0000 0.0000 -3.2021 9.9400 1.6769 0.2938 -7.1250 0.0000 -0.0000 -13.2519 31.5031 4.4798 0.0000 -0.0000 0.0000 82.4322 -1.5538 25.6510 -13.1657 21.5296 -2.5138 0.0000 -0.0000 -8.2069 -17.5278 2.9799 -0.9406 7.1250 -0.0000 -0.0000 6.9239 -26.8400 3.0728
0.2431 17.8971 -29.2055 -3.2470 39.0157 -0.3479 0.0000 0.0000 0.0000 -13.5333 -14.1637 -9.3468 2.3605 9.5798 27.6264 0.4326 -7.7265 -12.1133 0.1924 -2.8246 -7.7909 0.0000 0.0000 0.0000 23.8987 -16.0524 -10.7663 -2.2521 -9.3725 26.9678 2.4903 -33.3693 -34.9698 -0.0844 -1.8744 5.1586 3.2195 6.6464 2.4729 2.0991 9.0034 -0.2721 0.0543 4.4818 -1.5009 16.1802 20.5628 -0.7978 -12.5816 29.3592 12.6420 -3.2228 14.3751 8.2551 -0.0000 -0.0000 0.0000 -89.0188 -1.3498 37.4461 12.9522 -21.2172 -2.4360 -0.0000 0.0000 -3.2211 9.8632 1.6425 0.2855 -7.1250 0.0000 -0.0000 -13.3071 31.4670 4.5113 -0.0000 -0.0000 0.0000 82.3378 -1.7060 25.7728 -13.2301 21.6234 -2.5374 0.0000 -0.0000 -8.3123 -17.8704 3.1051 -1.0006 7.1250 -0.0000 -0.0000 6.6570 -26.7046 2.9741
0.2429 17.8971 -29.2059 -3.1894 39.0305 -0.3246 0.0000 0.0000 0.0000 -13.5876 -14.1524 -9.3239 2.3565 9.5721 27.6020 0.4309 -7.7330 -12.0943 0.1975 -2.8614 -7.8932 0.0000 0.0000 0.0000 23.8392 -16.0994 -10.7966 -2.2608 -9.3895 27.0214 2.4787 -33.3299 -34.9556 -0.0852 -1.8827 5.1815 3.2061 6.5945 2.4564 2.0980 8.9311 -0.2275 0.0679 4.4470 -1.4490 16.6764 20.5306 0.2437 -13.5091 29.4118 11.3234 -3.6808 14.4531 7.8806 0.0000 0.0000 0.0000 -89.0221 -1.3731 37.2912 12.9609 -21.2298 -2.4391 -0.0000 0.0000 -3.1891 9.8351 1.6580 0.2874 -7.1250 0.0000 -0.0000 -13.3313 31.4815 4.5151 0.0000 0.0000 0.0000 82.3503 -1.6136 25.7580 -13.2514 21.6544 -2.5453 0.0000 -0.0000 -8.3555 -18.0445 3.1650 -1.0304 7.1250 -0.0000 -0.0000 6.5218 -26.6394 2.9230
0.2423 17.8968 -29.2069 -3.1417 39.0343 -0.3040 0.0000 0.0000 0.0000 -13.6303 -14.1459 -9.3054 2.3526 9.5648 27.5785 0.4299 -7.7378 -12.0839 0.1964 -2.8536 -7.8714 0.0000 0.0000 0.0000 23.7908 -16.1305 -10.8301 -2.2693 -9.4058 27.0733 2.4699 -33.3018 -34.9484 -0.0856 -1.8870 5.1934 3.1819 6.5872 2.4460 2.0942 8.9197 -0.2173 0.0792 4.4417 -1.4359 16.4919 20.5662 -0.0762 -13.2072 29.4224 11.6928 -3.5292 14.4417 7.9793 0.0000 0.0000 0.0000 -89.0266 -1.3672 37.2351 12.9540 -21.2197 -2.4366 -0.0000 0.0000 -3.1695 9.7976 1.6562 0.2860 -7.1250 0.0000 -0.0000 -13.3604 31.4787 4.5264 0.0000 0.0000 0.0000 82.3481 -1.6220 25.7403 -13.2840 21.7020 -2.5574 0.0000 -0.0000 -8.3928 -18.2671 3.2494 -1.0719 7.1250 -0.0000 -0.0000 6.3488 -26.5475 2.8583
0.2413 17.8965 -29.2080 -3.1095 39.0306 -0.2891 0.0000 0.0000 0.0000 -13.6567 -14.1448 -9.2943 2.3496 9.5592 27.5608 0.4292 -7.7339 -12.0743 0.1958 -2.8495 -7.8599 0.0000 0.0000 0.0000 23.7605 -16.1445 -10.8603 -2.2761 -9.4190 27.1150 2.4662 -33.2878 -34.9412 -0.0859 -1.8908 5.2039 3.1692 6.5875 2.4330 2.0901 8.9185 -0.2073 0.0843 4.4415 -1.4197 16.3160 20.5931 -0.3224 -12.9782 29.4251 11.9359 -3.4135 14.4305 8.0366 -0.0000 0.0000 0.0000 -89.0280 -1.3732 37.1936 12.9400 -21.1993 -2.4316 -0.0000 0.0000 -3.1284 9.7878 1.6437 0.2835 -7.1250 0.0000 -0.0000 -13.3662 31.4660 4.5326 -0.0000 0.0000 0.0000 82.3528 -1.6103 25.6969 -13.3117 21.7423 -2.5676 0.0000 -0.0000 -8.4449 -18.4575 3.3212 -1.1078 7.1250 -0.0000 -0.0000 6.2012 -26.4690 2.8026
0.2396 17.8963 -29.2088 -3.0937 39.0232 -0.2819 0.0000 0.0000 0.0000 -13.6646 -14.1413 -9.2922 2.3478 9.5558 27.5500 0.4286 -7.7327 -12.0662 0.1954 -2.8469 -7.8527 0.0000 0.0000 0.0000 23.7499 -16.1374 -10.8827 -2.2816 -9.4296 27.1487 2.4656 -33.2886 -34.9460 -0.0861 -1.8929 5.2097 3.1662 6.5889 2.4217 2.0863 8.9194 -0.2001 0.0841 4.4422 -1.4058 16.1284 20.6177 -0.5114 -12.7902 29.4294 12.0996 -3.3176 14.4225 8.0636 0.0000 -0.0000 0.0000 -89.0261 -1.3839 37.1564 12.9213 -21.1719 -2.4248 -0.0000 0.0000 -3.0737 9.8012 1.6338 0.2822 -7.1250 0.0000 -0.0000 -13.3542 31.4567 4.5315 0.0000 -0.0000 0.0000 82.3645 -1.5927 25.6471 -13.3382 21.7807 -2.5774 0.0000 -0.0000 -8.4876 -18.6170 3.3777 -1.1370 7.1250 -0.0000 -0.0000 6.0777 -26.4069 2.7551
0.2375 17.8960 -29.2094 -3.0949 39.0133 -0.2832 0.0000 0.0000 0.0000 -13.6546 -14.1394 -9.2966 2.3470 9.5542 27.5448 0.4282 -7.7320 -12.0618 0.1954 -2.8465 -7.8517 0.0000 0.0000 0.0000 23.7589 -16.1133 -10.8978 -2.2855 -9.4371 27.1724 2.4692 -33.3038 -34.9567 -0.0862 -1.8942 5.2134 3.1783 6.5972 2.4159 2.0781 8.9303 -0.2018 0.0698 4.4475 -1.4009 15.9183 20.6382 -0.7504 -12.5559 29.4245 12.3312 -3.2005 14.4079 8.1092 -0.0000 -0.0000 0.0000 -89.0122 -1.3916 37.1420 12.8981 -21.1377 -2.4164 -0.0000 0.0000 -3.0106 9.8338 1.6219 0.2811 -7.1250 0.0000 -0.0000 -13.3270 31.4459 4.5253 -0.0000 -0.0000 0.0000 82.3875 -1.5834 25.5847 -13.3650 21.8196 -2.5874 0.0000 -0.0000 -8.5347 -18.7296 3.4176 -1.1579 7.1250 -0.0000 -0.0000 5.9907 -26.3629 2.7214
0.2350 17.8958 -29.2097 -3.1098 39.0035 -0.2927 0.0000 0.0000 0.0000 -13.6310 -14.1357 -9.3048 2.3469 9.5541 27.5444 0.4281 -7.7338 -12.0605 0.1957 -2.8491 -7.8588 0.0000 0.0000 0.0000 23.7828 -16.0763 -10.9030 -2.2878 -9.4414 27.1862 2.4768 -33.3322 -34.9719 -0.0861 -1.8930 5.2100 3.1979 6.5973 2.4088 2.0754 8.9307 -0.2026 0.0576 4.4476 -1.3945 15.7452 20.6615 -0.8932 -12.4009 29.4311 12.4364 -3.1222 14.4038 8.1172 -0.0000 -0.0000 0.0000 -89.0048 -1.3994 37.1000 12.8726 -21.1003 -2.4072 -0.0000 0.0000 -2.9480 9.8817 1.6004 0.2788 -7.1250 0.0000 -0.0000 -13.2863 31.4259 4.5174 -0.0000 -0.0000 0.0000 82.4080 -1.5796 25.5378 -13.3975 21.8668 -2.5995 0.0000 -0.0000 -8.5649 -18.7870 3.4362 -1.1681 7.1250 -0.0000 -0.0000 5.9464 -26.3423 2.7040
